<svg aria-hidden="true" style="position: absolute; width: 0; height: 0; overflow: hidden;" version="1.1" xmlns="http://www.w3.org/2000/svg" xmlns:xlink="http://www.w3.org/1999/xlink">
<defs>

<symbol viewBox="0 0 28 28" id="logo">
<g id="ukraine" clip-path="url(#clip0_4_550)">
<path id="Vector" d="M14 28C21.732 28 28 21.732 28 14C28 6.26801 21.732 0 14 0C6.26801 0 0 6.26801 0 14C0 21.732 6.26801 28 14 28Z" fill="#FFDA44"/>
<path id="Vector_2" d="M0 14C0 6.26806 6.26806 0 14 0C21.7319 0 28 6.26806 28 14" fill="#338AF3"/>
</g>
<defs>
<clipPath id="clip0_4_550">
<rect width="28" height="28" fill="white"/>
</clipPath>
</defs>
</symbol>


<symbol id="online" viewBox="0 0 12 12" fill="none" xmlns="http://www.w3.org/2000/svg">
  <circle cx="6" cy="6" r="6" fill="white" />
  <circle cx="6" cy="6" r="4" fill="#38CD3E" />
</symbol>

<symbol id="rectangle" viewBox="0 0 1312 116" fill="none" xmlns="http://www.w3.org/2000/svg">
<rect x="0.75" y="0.75" width="1310.5" height="114.5" rx="29.25" stroke-width="1.5" stroke-dasharray="15 15"/>
</symbol>

<symbol id="heart" viewBox="0 0 32 32">
<path stroke-linejoin="round" stroke-linecap="round" stroke-miterlimit="4" stroke-width="2.4615" d="M27.787 6.147c-0.681-0.681-1.49-1.222-2.379-1.591s-1.844-0.559-2.807-0.559-1.917 0.19-2.807 0.559c-0.89 0.369-1.699 0.909-2.38 1.591l-1.413 1.413-1.413-1.413c-1.376-1.376-3.241-2.148-5.187-2.148s-3.811 0.773-5.187 2.148c-1.376 1.376-2.148 3.241-2.148 5.187s0.773 3.811 2.148 5.187l11.787 11.787 11.787-11.787c0.681-0.681 1.222-1.49 1.591-2.379s0.559-1.844 0.559-2.807-0.19-1.917-0.559-2.807c-0.369-0.89-0.909-1.699-1.591-2.38z"></path>
</symbol>

<symbol id="line" viewBox="0 0 2 16" fill="none" xmlns="http://www.w3.org/2000/svg" >
 <path d="M1 0V16" />
</symbol>

<symbol id="close" viewBox="0 0 32 32">
<path stroke-linejoin="round" stroke-linecap="round" stroke-miterlimit="4" stroke-width="2.5" d="M24 8l-16 16"></path>
<path stroke-linejoin="round" stroke-linecap="round" stroke-miterlimit="4" stroke-width="2.5" d="M8 8l16 16"></path>
</symbol>

<symbol id="login" viewBox="0 0 32 32">
<path stroke-linejoin="round" stroke-linecap="round" stroke-miterlimit="4" stroke-width="3.2" d="M20 4h1.6c2.24 0 3.36 0 4.216 0.436 0.753 0.383 1.364 0.995 1.748 1.748 0.436 0.856 0.436 1.976 0.436 4.216v11.2c0 2.24 0 3.36-0.436 4.216-0.384 0.753-0.995 1.364-1.748 1.748-0.856 0.436-1.976 0.436-4.216 0.436h-1.6"></path>
<path stroke-linejoin="round" stroke-linecap="round" stroke-miterlimit="4" stroke-width="3.2" d="M13.333 9.333l6.667 6.667M20 16l-6.667 6.667M20 16h-16"></path>
</symbol>

<symbol id="book" viewBox="0 0 16 16" fill="none" xmlns="http://www.w3.org/2000/svg">
  <path d="M14.6667 4.13333C14.6667 3.3866 14.6667 3.01323 14.5213 2.72801C14.3935 2.47713 14.1895 2.27316 13.9387 2.14532C13.6534 2 13.2801 2 12.5333 2H12.2667C10.7732 2 10.0265 2 9.45603 2.29065C8.95426 2.54631 8.54631 2.95426 8.29065 3.45603C8 4.02646 8 4.77319 8 6.26667V14L8.0667 13.8999C8.5298 13.2053 8.76135 12.858 9.06727 12.6065C9.33809 12.3839 9.65016 12.2169 9.9856 12.1151C10.3645 12 10.7819 12 11.6168 12H12.5333C13.2801 12 13.6534 12 13.9387 11.8547C14.1895 11.7268 14.3935 11.5229 14.5213 11.272C14.6667 10.9868 14.6667 10.6134 14.6667 9.86667V4.13333Z" stroke="black" stroke-width="1.5" stroke-linecap="round" stroke-linejoin="round" />
  <path d="M1.33325 4.13333C1.33325 3.3866 1.33325 3.01323 1.47858 2.72801C1.60641 2.47713 1.81038 2.27316 2.06126 2.14532C2.34648 2 2.71985 2 3.46659 2H3.73325C5.22673 2 5.97346 2 6.54389 2.29065C7.04566 2.54631 7.45361 2.95426 7.70927 3.45603C7.99992 4.02646 7.99992 4.77319 7.99992 6.26667V14L7.93322 13.8999C7.47012 13.2053 7.23857 12.858 6.93265 12.6065C6.66182 12.3839 6.34976 12.2169 6.01432 12.1151C5.63542 12 5.21799 12 4.38313 12H3.46659C2.71985 12 2.34648 12 2.06126 11.8547C1.81038 11.7268 1.60641 11.5229 1.47858 11.272C1.33325 10.9868 1.33325 10.6134 1.33325 9.86667V4.13333Z" stroke="black" stroke-width="1.5" stroke-linecap="round" stroke-linejoin="round" />
</symbol>

<symbol id="star" viewBox="0 0 34 32">
<path fill="#ffc531" style="fill: var(--color1, #ffc531); stroke: var(--color1, #ffc531)" stroke="#ffc531" stroke-linejoin="miter" stroke-linecap="butt" stroke-miterlimit="4" stroke-width="2.56" d="M13.227 10.020l3.84-7.277 3.84 7.277c0.34 0.644 0.959 1.093 1.675 1.217l8.108 1.403-5.735 5.9c-0.507 0.522-0.744 1.249-0.64 1.97l1.171 8.144-7.384-3.631c-0.653-0.321-1.418-0.321-2.071 0l-7.384 3.631 1.171-8.144c0.104-0.72-0.133-1.448-0.64-1.97l-5.735-5.9 8.108-1.403c0.717-0.124 1.336-0.574 1.675-1.217z"></path>
</symbol>

<symbol id="apple" viewBox="0 0 26 32">
<path d="M19.7 0.778c0 1.566-0.561 3.029-1.678 4.382-1.349 1.609-2.98 2.539-4.75 2.392-0.023-0.188-0.036-0.386-0.036-0.593 0-1.504 0.641-3.113 1.781-4.428 0.569-0.666 1.292-1.22 2.169-1.662 0.875-0.435 1.703-0.676 2.482-0.717 0.010 0.093 0.018 0.186 0.023 0.279 0.006 0.116 0.009 0.232 0.009 0.347z"></path>
<path d="M25.622 24.557c-0.464 1.094-1.014 2.101-1.65 3.027-0.868 1.262-1.578 2.136-2.126 2.621-0.849 0.796-1.758 1.204-2.732 1.228-0.699 0-1.542-0.203-2.523-0.615-0.985-0.41-1.889-0.613-2.717-0.613-0.868 0-1.798 0.203-2.794 0.613-0.997 0.412-1.8 0.626-2.414 0.648-0.934 0.041-1.865-0.379-2.794-1.26-0.593-0.528-1.335-1.432-2.223-2.714-0.953-1.369-1.737-2.956-2.351-4.765-0.658-1.954-0.987-3.847-0.987-5.679 0-2.099 0.444-3.909 1.335-5.426 0.7-1.219 1.63-2.18 2.795-2.885s2.424-1.065 3.779-1.088c0.742 0 1.714 0.234 2.923 0.694 1.205 0.462 1.979 0.696 2.318 0.696 0.254 0 1.113-0.274 2.571-0.819 1.378-0.506 2.541-0.716 3.494-0.633 2.582 0.213 4.522 1.251 5.812 3.123-2.309 1.428-3.452 3.428-3.429 5.993 0.021 1.998 0.731 3.661 2.127 4.981 0.633 0.613 1.339 1.086 2.126 1.423-0.171 0.505-0.35 0.988-0.542 1.452z"></path>
</symbol>

   <symbol id="paint" viewBox="0 0 24 24">
      <path d="M17.484 12q.609 0 1.055-.422t.445-1.078-.445-1.078T17.484 9t-1.055.422-.445 1.078.445 1.078 1.055.422zm-3-3.984q.609 0 1.055-.445t.445-1.055-.445-1.055-1.055-.445-1.055.445-.445 1.055.445 1.055 1.055.445zm-4.968 0q.609 0 1.055-.445t.445-1.055-.445-1.055-1.055-.445-1.055.445-.445 1.055.445 1.055 1.055.445zm-3 3.984q.609 0 1.055-.422t.445-1.078-.445-1.078T6.516 9t-1.055.422-.445 1.078.445 1.078T6.516 12zM12 3q3.703 0 6.352 2.344T21 11.016q0 2.063-1.477 3.516t-3.539 1.453H14.25q-.656 0-1.078.445t-.422 1.055q0 .516.375.984T13.5 19.5q0 .656-.422 1.078T12 21q-3.75 0-6.375-2.625T3 12t2.625-6.375T12 3z"/>
    </symbol>

    <symbol id="icon-eye-off" viewBox="0 0 24 24">
      <path d="M10.128 5.214A7.908 7.908 0 0 1 11.988 5c1.758 0 3.309.559 4.658 1.393 1.119.692 2.089 1.567 2.894 2.448a18.701 18.701 0 0 1 2.318 3.156 16.723 16.723 0 0 1-1.778 2.542 1 1 0 0 0 1.518 1.302 18.991 18.991 0 0 0 2.283-3.37 1 1 0 0 0 .013-.919s-.396-.789-1.12-1.843a20.553 20.553 0 0 0-1.757-2.218c-.894-.979-2.004-1.987-3.319-2.8C16.103 3.706 14.192 3 12.012 3a9.899 9.899 0 0 0-2.34.266 1 1 0 1 0 .456 1.948zm-.101 6.228 2.531 2.531a2.003 2.003 0 0 1-2.531-2.532zM5.983 7.397 8.536 9.95a3.993 3.993 0 0 0-.608 2.266c.036 1.022.463 2.033 1.271 2.785s1.846 1.107 2.868 1.071a3.991 3.991 0 0 0 1.984-.608l2.322 2.322A8.962 8.962 0 0 1 11.989 19c-1.734 0-3.285-.559-4.634-1.393-1.119-.692-2.089-1.567-2.894-2.448a18.701 18.701 0 0 1-2.317-3.155 17.275 17.275 0 0 1 3.841-4.607zm-5.69-5.69 4.271 4.271a19.34 19.34 0 0 0-4.445 5.549.999.999 0 0 0-.013.92s.396.789 1.12 1.843a20.553 20.553 0 0 0 1.757 2.218c.894.979 2.004 1.987 3.319 2.8C7.897 20.294 9.808 21 12.012 21a10.98 10.98 0 0 0 5.815-1.759l4.466 4.466a.999.999 0 1 0 1.414-1.414l-8.876-8.876-.007-.007-4.209-4.21-.024-.024L1.707.293A.999.999 0 1 0 .293 1.707z"/>
    </symbol>

    <symbol id="icon-eye" viewBox="0 0 24 24">
      <path d="M.106 11.553a.997.997 0 0 0 0 .894s.396.789 1.12 1.843a20.553 20.553 0 0 0 1.757 2.218c.894.979 2.004 1.987 3.319 2.8C7.897 20.294 9.808 21 12 21s4.103-.706 5.698-1.692c1.315-.813 2.425-1.821 3.319-2.8a20.678 20.678 0 0 0 1.757-2.218 17.468 17.468 0 0 0 1.12-1.843.997.997 0 0 0 0-.894s-.396-.789-1.12-1.843a20.553 20.553 0 0 0-1.757-2.218c-.894-.979-2.004-1.987-3.319-2.8C16.103 3.706 14.192 3 12 3s-4.103.706-5.698 1.692c-1.315.813-2.425 1.821-3.319 2.8A20.455 20.455 0 0 0 1.226 9.71a17.468 17.468 0 0 0-1.12 1.843zM2.14 12a18.575 18.575 0 0 1 2.319-3.159c.805-.881 1.775-1.756 2.894-2.448C8.703 5.559 10.254 5 12 5s3.297.559 4.646 1.393c1.119.692 2.089 1.567 2.894 2.448A18.701 18.701 0 0 1 21.859 12a18.575 18.575 0 0 1-2.319 3.159c-.805.881-1.775 1.756-2.894 2.448C15.297 18.441 13.746 19 12 19s-3.297-.559-4.646-1.393c-1.119-.692-2.089-1.567-2.894-2.448A18.701 18.701 0 0 1 2.14 12zM16 12c0-1.104-.449-2.106-1.172-2.828a3.994 3.994 0 0 0-5.656 0 3.994 3.994 0 0 0 0 5.656 3.994 3.994 0 0 0 5.656 0A3.994 3.994 0 0 0 16 12zm-2 0c0 .553-.223 1.051-.586 1.414S12.553 14 12 14s-1.051-.223-1.414-.586S10 12.553 10 12s.223-1.051.586-1.414S11.447 10 12 10s1.051.223 1.414.586S14 11.447 14 12z"/>
    </symbol>

</defs>
</svg>
